<?xml version="1.0" encoding="UTF-8" standalone="no"?>
<svg
   xmlns:dc="http://purl.org/dc/elements/1.1/"
   xmlns:cc="http://creativecommons.org/ns#"
   xmlns:rdf="http://www.w3.org/1999/02/22-rdf-syntax-ns#"
   xmlns:svg="http://www.w3.org/2000/svg"
   xmlns="http://www.w3.org/2000/svg"
   version="1.1"
   id="svg4136"
   viewBox="0 0 40.000001 20.000001"
   height="20"
   width="40">
  <defs
     id="defs4138" />
  <metadata
     id="metadata4141">
    <rdf:RDF>
      <cc:Work
         rdf:about="">
        <dc:format>image/svg+xml</dc:format>
        <dc:type
           rdf:resource="http://purl.org/dc/dcmitype/StillImage" />
        <dc:title></dc:title>
      </cc:Work>
    </rdf:RDF>
  </metadata>
  <g
     transform="translate(0,-1032.3621)"
     id="layer1">
    <g
       transform="matrix(0.23460412,0,0,0.23460412,36.624635,808.12464)"
       id="g5606">
      <polygon
         transform="translate(-82.500005,949.8621)"
         style="fill:#8c3123"
         id="polygon7"
         points="34.9,49.9 21.4,23.1 15.9,25.9 15.9,74 21.4,76.8 "
         class="st0" />
      <polygon
         transform="translate(-82.500005,949.8621)"
         style="fill:#e05243"
         id="polygon9"
         points="63.5,50 50,69.8 21.4,76.8 21.4,23.1 50,30 "
         class="st1" />
      <polygon
         transform="translate(-82.500005,949.8621)"
         style="fill:#8c3123"
         id="polygon11"
         points="50,30 50,69.8 78.6,76.8 83.5,50.6 78.6,23.1 "
         class="st0" />
      <polygon
         transform="translate(-82.500005,949.8621)"
         style="fill:#e05243"
         id="polygon13"
         points="84.1,25.9 84.1,74 78.6,76.8 78.6,23.1 "
         class="st1" />
      <polygon
         transform="translate(-82.500005,949.8621)"
         style="fill:#8c3123"
         id="polygon15"
         points="37.5,41.2 37.5,58.8 50,60.4 59.9,50 50,39.6 "
         class="st0" />
      <polygon
         transform="translate(-82.500005,949.8621)"
         style="fill:#5e1f18"
         id="polygon17"
         points="50,35 37.5,32.7 50,8.8 62.5,32.7 "
         class="st2" />
      <polygon
         transform="translate(-82.500005,949.8621)"
         style="fill:#f2b0a9"
         id="polygon19"
         points="50,65 37.5,67.3 50,91.2 62.5,67.3 "
         class="st3" />
      <polygon
         transform="translate(-82.500005,949.8621)"
         style="fill:#e05243"
         id="polygon21"
         points="50,29.6 50,8.8 62.5,15.1 62.5,32.7 "
         class="st1" />
      <polygon
         transform="translate(-82.500005,949.8621)"
         style="fill:#8c3123"
         id="polygon23"
         points="50,29.6 50,8.8 37.5,15.1 37.5,32.7 "
         class="st0" />
      <polygon
         transform="translate(-82.500005,949.8621)"
         style="fill:#e05243"
         id="polygon25"
         points="62.5,84.9 62.5,67.3 50,70.4 50,91.2 "
         class="st1" />
      <polygon
         transform="translate(-82.500005,949.8621)"
         style="fill:#8c3123"
         id="polygon27"
         points="37.5,84.9 37.5,67.3 50,70.4 50,91.2 "
         class="st0" />
      <polygon
         transform="translate(-82.500005,949.8621)"
         style="fill:#e05243"
         id="polygon29"
         points="50,60.4 50,39.6 62.5,41.2 62.5,58.8 "
         class="st1" />
    </g>
    <g
       id="Layer_2"
       transform="translate(-82.500005,949.8621)" />
    <path
       id="path4748"
       d="m 3.9999986,1038.362 7.0000004,0 0,-2.9999 7,7 -7,7 0,-2.9999 -7.0000004,0 z"
       style="fill:#494e9a;fill-opacity:1;fill-rule:evenodd;stroke:none;stroke-width:1px;stroke-linecap:butt;stroke-linejoin:miter;stroke-opacity:1" />
  </g>
</svg>
